:SAMPLES-PER-SECOND 30
:FULLY-SPECIFIED
:DEGREES
482
root  50.9045 38.9411 9.03912 173.805 37.9597 176.063
RightUpLeg  -10.1688 -14.288 -8.68241
RightLeg  12.4117 -2.90885 2.37879
RightFoot  3.59275 0.0354846 -0.0826126
RightToes  4.01633e-009 0 -3.6325e-017
Spine  18.307 -3.68797 4.5997
Spine1  17.8854 -4.11499 2.3296
HEad  -9.62279 10.9297 -15.8739
LeftShoulder1  1.28517 -0.639548 -24.8028
LeftArm  -1.8602 -31.9085 -50.4992
LeftForeArm  8.92731 -62.5039 -21.532
LeftHand  0.052073 2.71147 -2.99398
RightShoulder  -0.097111 -3.80412 23.6382
RightArm  -28.0289 -3.62758 27.0599
RightForeArm  98.0355 74.4611 132.502
RightHand  -0.159361 -0.352519 -3.64662
LeftUpLeg  -11.3427 5.04265 -0.781899
LeftLeg  23.6202 1.92416 1.24964
LeftFoot  -6.33319 0.153224 -2.63139
LeftToes  -1.95724e-009 9.62483e-011 3.51777e-011
483
root  50.8557 39.0312 9.30054 174.165 32.4299 176.269
RightUpLeg  -8.69779 -14.5535 -9.86289
RightLeg  11.0395 -7.75933 2.01491
RightFoot  4.10295 0.0104704 0.128655
RightToes  4.01633e-009 0 -3.6325e-017
Spine  17.0567 -3.57037 3.81072
Spine1  17.3845 -4.49704 3.52771
HEad  -8.21465 11.1139 -17.4195
LeftShoulder1  1.14664 0.000189909 -26.5671
LeftArm  -0.262746 -27.1785 -48.2108
LeftForeArm  11.4878 -64.9317 -23.9455
LeftHand  0.0614534 2.60066 -3.20548
RightShoulder  -0.244315 -4.25944 24.8922
RightArm  -26.027 -10.1076 28.5905
RightForeArm  105.608 72.8453 138.603
RightHand  -0.174223 -0.610907 -4.18556
LeftUpLeg  -9.70299 9.88955 1.04377
LeftLeg  23.729 2.61731 1.589
LeftFoot  -6.37266 0.108243 -1.61513
LeftToes  -1.95724e-009 9.62483e-011 3.51777e-011
484
root  50.7265 39.0772 9.52663 174.654 26.6589 176.63
RightUpLeg  -7.21758 -15.1515 -11.0336
RightLeg  9.90238 -12.614 1.89776
RightFoot  4.42333 -0.0867076 0.845483
RightToes  4.01633e-009 0 -3.6325e-017
Spine  16.1007 -3.71376 3.12824
Spine1  16.7352 -5.03754 4.50013
HEad  -7.28753 11.8498 -18.7648
LeftShoulder1  1.01993 0.489542 -27.692
LeftArm  -0.172709 -23.4675 -46.5094
LeftForeArm  13.14 -65.1932 -24.118
LeftHand  0.0938132 1.97428 -3.63205
RightShoulder  -0.418785 -4.7462 26.7499
RightArm  -23.7785 -14.5894 29.7884
RightForeArm  109.936 72.0949 141.078
RightHand  -0.192243 -0.296734 -4.3747
LeftUpLeg  -8.68142 13.8874 3.37039
LeftLeg  23.8134 2.84632 1.70416
LeftFoot  -6.23694 0.0841509 -1.04407
LeftToes  -1.95724e-009 9.62483e-011 3.51777e-011
485
root  50.5075 39.0933 9.70211 174.758 21.3555 176.759
RightUpLeg  -5.79923 -15.7946 -12.3071
RightLeg  9.30567 -16.8192 1.48206
RightFoot  4.7353 -0.181309 1.51232
RightToes  4.01633e-009 0 -3.6325e-017
Spine  15.7432 -3.73629 2.56852
Spine1  15.7674 -5.24075 5.10918
HEad  -6.84307 13.2995 -20.7726
LeftShoulder1  0.876048 0.979608 -28.667
LeftArm  0.435338 -19.3738 -43.4494
LeftForeArm  14.7164 -66.5213 -25.7269
LeftHand  0.0692514 2.33578 -3.19874
RightShoulder  -0.534011 -5.04004 27.9922
RightArm  -21.6731 -17.7336 31.2302
RightForeArm  111.653 72.3457 140.703
RightHand  -0.197358 0.0862458 -4.2133
LeftUpLeg  -7.62163 18.5611 5.807
LeftLeg  23.5408 2.03265 1.29976
LeftFoot  -5.98744 0.0518837 -0.352128
LeftToes  -1.95724e-009 9.62483e-011 3.51777e-011
486
root  50.1758 39.1064 9.85167 174.805 15.8214 176.812
RightUpLeg  -4.13203 -16.6252 -13.9445
RightLeg  8.59231 -20.9645 1.3245
RightFoot  5.34919 -0.28037 2.16045
RightToes  4.01633e-009 0 -3.6325e-017
Spine  15.4608 -3.88541 1.34898
Spine1  15.1504 -5.90964 6.3565
HEad  -7.25069 14.9042 -23.3395
LeftShoulder1  0.68761 1.60556 -30.0713
LeftArm  0.374694 -16.4562 -40.2862
LeftForeArm  15.1116 -66.9732 -26.361
LeftHand  0.0785439 2.30549 -3.5152
RightShoulder  -0.509206 -4.94703 28.4133
RightArm  -19.163 -18.7453 32.3883
RightForeArm  111.012 73.5483 137.506
RightHand  -0.163625 0.204892 -3.41586
LeftUpLeg  -6.97201 21.4412 7.71861
LeftLeg  22.7052 2.46753 1.4609
LeftFoot  -5.4553 0.00798608 0.493476
LeftToes  -1.95724e-009 9.62483e-011 3.51777e-011
487
root  49.7453 39.0843 9.95598 175.39 10.3373 177.404
RightUpLeg  -2.61336 -17.0797 -15.051
RightLeg  7.59467 -25.5319 1.37525
RightFoot  6.29974 -0.374173 2.68846
RightToes  4.01633e-009 0 -3.6325e-017
Spine  14.2304 -3.77219 1.43611
Spine1  15.401 -5.94466 6.80454
HEad  -7.97602 15.766 -26.0166
LeftShoulder1  0.705998 1.56521 -30.3866
LeftArm  0.0929699 -14.1217 -38.4867
LeftForeArm  15.0686 -67.1541 -26.6521
LeftHand  0.0887519 2.32501 -3.91515
RightShoulder  -0.566271 -5.09465 28.7871
RightArm  -16.5392 -18.7963 32.4894
RightForeArm  107.55 74.6218 133.622
RightHand  -0.229306 0.639673 -4.5185
LeftUpLeg  -7.31234 24.4781 9.58103
LeftLeg  22.001 4.42713 2.29054
LeftFoot  -5.12384 -0.00116991 0.590302
LeftToes  -1.95724e-009 9.62483e-011 3.51777e-011
488
root  49.2035 39.0509 10.0246 175.72 5.50638 177.767
RightUpLeg  -0.924136 -17.6314 -16.436
RightLeg  6.41697 -29.3323 1.68677
RightFoot  7.44141 -0.502927 3.34798
RightToes  4.01633e-009 0 -3.6325e-017
Spine  14.2715 -3.29623 0.637015
Spine1  14.1269 -5.88423 8.17529
HEad  -8.88835 17.3232 -28.8249
LeftShoulder1  0.528261 2.09306 -31.3142
LeftArm  0.532293 -12.364 -36.2779
LeftForeArm  14.4807 -67.3107 -26.9883
LeftHand  0.0582216 2.75794 -3.33979
RightShoulder  -0.436489 -4.74739 28.1663
RightArm  -13.0628 -18.7787 31.6121
RightForeArm  102.884 75.6566 128.933
RightHand  -0.207943 1.0321 -3.87196
LeftUpLeg  -7.29871 29.5355 10.8949
LeftLeg  21.0076 7.57551 3.52077
LeftFoot  -4.97278 -0.0634705 1.67345
LeftToes  -1.95724e-009 9.62483e-011 3.51777e-011
489
root  48.5795 39.0054 10.0767 175.997 0.476776 178.261
RightUpLeg  1.13169 -17.733 -17.6148
RightLeg  4.79769 -33.5929 1.96509
RightFoot  8.96218 -0.665608 4.05814
RightToes  4.01633e-009 0 -3.6325e-017
Spine  14.0102 -2.74326 0.544291
Spine1  13.2973 -5.42769 8.73992
HEad  -10.1864 19.3523 -30.326
LeftShoulder1  0.490066 2.18058 -30.9389
LeftArm  0.676893 -10.5126 -35.7119
LeftForeArm  15.2156 -67.6872 -27.5046
LeftHand  0.0726888 2.63822 -3.76922
RightShoulder  -0.440216 -4.76082 28.0951
RightArm  -10.3303 -18.5306 30.4533
RightForeArm  98.7548 76.2838 125.28
RightHand  -0.212901 0.980486 -3.98577
LeftUpLeg  -7.56969 33.7308 11.5561
LeftLeg  20.5622 12.3554 5.39893
LeftFoot  -4.68809 -0.155924 3.1795
LeftToes  -1.95724e-009 9.62483e-011 3.51777e-011
490
root  47.7745 38.899 10.017 176.1 -5.07593 178.541
RightUpLeg  3.84762 -18.2337 -19.5899
RightLeg  3.43935 -37.7688 2.43306
RightFoot  10.2323 -0.935503 5.27403
RightToes  4.01633e-009 0 -3.6325e-017
Spine  13.5307 -2.46447 0.547556
Spine1  12.4537 -5.15428 9.07203
HEad  -11.0024 20.7823 -30.3271
LeftShoulder1  0.435517 2.33798 -31.2942
LeftArm  1.17724 -9.09207 -34.8144
LeftForeArm  15.9922 -68.4552 -28.7242
LeftHand  0.0425661 3.05478 -3.0759
RightShoulder  -0.371192 -4.56704 27.7444
RightArm  -8.80475 -18.9194 29.8691
RightForeArm  95.0459 76.6459 122.619
RightHand  -0.272251 1.104 -4.99262
LeftUpLeg  -7.69812 35.2707 11.0767
LeftLeg  20.8134 15.8705 6.86926
LeftFoot  -4.83453 -0.176567 3.54619
LeftToes  -1.95724e-009 9.62483e-011 3.51777e-011
491
root  46.7823 38.7183 9.88487 176.464 -10.7585 178.336
RightUpLeg  6.24578 -19.3484 -22.5575
RightLeg  3.77885 -40.5821 2.2724
RightFoot  10.5641 -1.31881 7.17867
RightToes  4.01633e-009 0 -3.6325e-017
Spine  12.0886 -1.96679 -0.123607
Spine1  12.4529 -4.92817 9.8761
HEad  -11.4317 21.8847 -30.7526
LeftShoulder1  0.373534 2.50882 -31.5888
LeftArm  1.47631 -8.06879 -34.9442
LeftForeArm  17.5907 -69.1006 -29.6947
LeftHand  0.0465447 3.1987 -3.59869
RightShoulder  -0.296261 -4.35914 27.0378
RightArm  -8.48064 -20.2779 29.4812
RightForeArm  93.7025 76.491 123.09
RightHand  -0.288281 1.22006 -5.19604
LeftUpLeg  -7.93298 35.318 9.34557
LeftLeg  20.9449 14.6725 6.44348
LeftFoot  -5.00516 0.0591858 -0.508991
LeftToes  -1.95724e-009 9.62483e-011 3.51777e-011
492
root  45.7183 38.5546 9.71002 176.967 -16.412 177.854
RightUpLeg  8.69198 -20.2225 -25.5805
RightLeg  4.32616 -40.8933 1.82959
RightFoot  9.06458 -1.50436 8.72813
RightToes  4.01633e-009 0 -3.6325e-017
Spine  10.2938 -1.41406 -0.30349
Spine1  12.9012 -4.14914 8.79836
HEad  -11.4497 21.3756 -29.8027
LeftShoulder1  0.544405 2.01162 -30.351
LeftArm  1.86284 -6.84582 -36.2718
LeftForeArm  19.283 -69.9287 -31.1182
LeftHand  0.0406909 2.83542 -2.94911
RightShoulder  -0.606151 -5.22495 28.5361
RightArm  -8.86011 -21.0678 27.6208
RightForeArm  96.7102 76.2033 125.186
RightHand  -0.276964 1.22544 -4.99471
LeftUpLeg  -9.03216 37.3315 6.77556
LeftLeg  20.9875 8.85428 4.03099
LeftFoot  -4.43326 0.0320218 -0.0538695
LeftToes  -1.95724e-009 9.62483e-011 3.51777e-011
493
root  44.6413 38.374 9.54989 177.028 -22.581 177.493
RightUpLeg  10.8303 -19.9908 -27.5173
RightLeg  6.00521 -35.9966 -0.245467
RightFoot  3.96557 -1.41559 10.8308
RightToes  4.01633e-009 0 -3.6325e-017
Spine  9.724 -1.23654 -0.635709
Spine1  12.4984 -3.98653 8.83208
HEad  -11.4293 20.3929 -29.1808
LeftShoulder1  0.429113 2.32079 -30.1899
LeftArm  2.60549 -6.48162 -36.6863
LeftForeArm  19.9015 -70.559 -32.4313
LeftHand  0.0441509 2.52875 -2.39541
RightShoulder  -0.555255 -5.09301 28.1317
RightArm  -10.2686 -23.2256 27.9235
RightForeArm  100.031 75.7277 128.04
RightHand  -0.313783 1.18717 -5.67799
LeftUpLeg  -10.4681 35.7691 4.25766
LeftLeg  23.317 4.99404 2.70188
LeftFoot  -6.32582 -0.0376735 1.76628
LeftToes  -1.95724e-009 9.62483e-011 3.51777e-011
494
root  43.5359 38.2918 9.38693 176.435 -29.1525 176.51
RightUpLeg  13.1775 -18.8344 -28.845
RightLeg  7.22858 -25.521 -2.37692
RightFoot  -1.89616 -0.85837 9.69611
RightToes  4.01633e-009 0 -3.6325e-017
Spine  9.3316 -1.31237 -0.485205
Spine1  13.4269 -3.70252 7.07864
HEad  -10.7842 18.5577 -28.5799
LeftShoulder1  0.487058 2.13742 -29.4923
LeftArm  2.87176 -6.96321 -37.7906
LeftForeArm  21.159 -70.7523 -32.6613
LeftHand  0.0567099 2.59055 -3.00041
RightShoulder  -0.648077 -5.32809 28.8188
RightArm  -11.7224 -24.2378 28.1072
RightForeArm  101.029 75.6792 128.449
RightHand  -0.296254 1.5234 -5.08391
LeftUpLeg  -9.44232 31.0862 1.7865
LeftLeg  24.1719 3.91679 2.26231
LeftFoot  -7.95948 -0.0621427 3.67757
LeftToes  -1.95724e-009 9.62483e-011 3.51777e-011
